<?xml version="1.0"?>
<svg xmlns="http://www.w3.org/2000/svg" viewBox="0 0 64 64">
    <path d="M 12 4 C 9.794 4 8 5.794 8 8 L 8 55 L 8 56 C 8 58.206 9.794 60 12 60 L 49 60 C 50.654 60 52 58.654 52 57 L 52 53.816406 C 53.161 53.402406 54 52.302 54 51 L 54 7 C 54 5.346 52.654 4 51 4 L 12 4 z M 12 6 L 51 6 C 51.552 6 52 6.449 52 7 L 52 51 C 52 51.551 51.552 52 51 52 L 20 52 L 20 17 C 20 16.448 19.553 16 19 16 C 18.447 16 18 16.448 18 17 L 18 52 L 12 52 C 11.383 52 10.66 52.222813 10 52.632812 L 10 8 C 10 6.897 10.897 6 12 6 z M 13 8 C 12.447 8 12 8.448 12 9 C 12 9.552 12.447 10 13 10 L 15 10 C 15.553 10 16 9.552 16 9 C 16 8.448 15.553 8 15 8 L 13 8 z M 19 8 C 18.447 8 18 8.448 18 9 L 18 13 C 18 13.552 18.447 14 19 14 C 19.553 14 20 13.552 20 13 L 20 9 C 20 8.448 19.553 8 19 8 z M 13 13 C 12.447 13 12 13.448 12 14 C 12 14.552 12.447 15 13 15 L 15 15 C 15.553 15 16 14.552 16 14 C 16 13.448 15.553 13 15 13 L 13 13 z M 13 18 C 12.447 18 12 18.448 12 19 C 12 19.552 12.447 20 13 20 L 15 20 C 15.553 20 16 19.552 16 19 C 16 18.448 15.553 18 15 18 L 13 18 z M 29.388672 19.96875 C 28.960672 19.96875 28.577406 20.242391 28.441406 20.650391 L 23.042969 36.650391 C 22.865969 37.172391 23.145922 37.740969 23.669922 37.917969 C 23.774922 37.953969 23.883281 37.970703 23.988281 37.970703 C 24.405281 37.970703 24.795547 37.707062 24.935547 37.289062 L 26.742188 31.939453 C 26.792188 31.947453 26.836672 31.970703 26.888672 31.970703 L 31.888672 31.970703 C 31.940672 31.970703 31.985156 31.947453 32.035156 31.939453 L 33.841797 37.289062 C 34.017797 37.812063 34.583422 38.096969 35.107422 37.917969 C 35.630422 37.740969 35.913328 37.173391 35.736328 36.650391 L 30.335938 20.650391 C 30.198937 20.243391 29.816672 19.96875 29.388672 19.96875 z M 13 23 C 12.447 23 12 23.448 12 24 C 12 24.552 12.447 25 13 25 L 15 25 C 15.553 25 16 24.552 16 24 C 16 23.448 15.553 23 15 23 L 13 23 z M 29.388672 24.097656 L 31.369141 29.970703 L 27.40625 29.970703 L 29.388672 24.097656 z M 41 26 C 38.794 26 37 27.794 37 30 L 37 34 C 37 36.206 38.794 38 41 38 L 42 38 C 43.2 38 44.266 37.457188 45 36.617188 C 45.734 37.457187 46.8 38 48 38 C 48.553 38 49 37.553 49 37 C 49 36.447 48.553 36 48 36 C 46.897 36 46 35.103 46 34 L 46 30 L 46 27.089844 C 46 26.536844 45.553 26.089844 45 26.089844 C 44.618 26.089844 44.296906 26.311953 44.128906 26.626953 C 43.510906 26.235953 42.784 26 42 26 L 41 26 z M 13 28 C 12.447 28 12 28.448 12 29 C 12 29.552 12.447 30 13 30 L 15 30 C 15.553 30 16 29.552 16 29 C 16 28.448 15.553 28 15 28 L 13 28 z M 41 28 L 42 28 C 43.103 28 44 28.897 44 30 L 44 34 C 44 35.103 43.103 36 42 36 L 41 36 C 39.897 36 39 35.103 39 34 L 39 30 C 39 28.897 39.897 28 41 28 z M 13 33 C 12.447 33 12 33.448 12 34 C 12 34.552 12.447 35 13 35 L 15 35 C 15.553 35 16 34.552 16 34 C 16 33.448 15.553 33 15 33 L 13 33 z M 13 38 C 12.447 38 12 38.448 12 39 C 12 39.552 12.447 40 13 40 L 15 40 C 15.553 40 16 39.552 16 39 C 16 38.448 15.553 38 15 38 L 13 38 z M 13 43 C 12.447 43 12 43.448 12 44 C 12 44.552 12.447 45 13 45 L 15 45 C 15.553 45 16 44.552 16 44 C 16 43.448 15.553 43 15 43 L 13 43 z M 13 48 C 12.447 48 12 48.448 12 49 C 12 49.552 12.447 50 13 50 L 15 50 C 15.553 50 16 49.552 16 49 C 16 48.448 15.553 48 15 48 L 13 48 z M 12 54 L 50 54 L 50 57 C 50 57.551 49.552 58 49 58 L 12 58 C 10.897 58 10 57.103 10 56 C 10 54.755 11.389 54 12 54 z"/>
</svg>
