<?xml version="1.0" standalone="no"?><!DOCTYPE svg PUBLIC "-//W3C//DTD SVG 1.1//EN"
        "http://www.w3.org/Graphics/SVG/1.1/DTD/svg11.dtd">
<svg class="icon" style="" viewBox="0 0 1024 1024" version="1.1" xmlns="http://www.w3.org/2000/svg"
     width="64" height="64">
    <path d="M645.12 260.608c-78.848 0-142.336 57.344-142.336 128.512 0.512 39.936 20.48 77.312 53.248 100.352v65.024l62.464-38.912c8.704 1.536 17.92 2.048 26.624 2.56 78.848 0 142.336-57.344 142.336-128.512 0-71.68-64-129.024-142.336-129.024z m-73.216 147.456c-10.24 0.512-18.432-7.68-18.944-17.92-0.512-10.24 7.68-18.432 17.92-18.944s18.432 7.68 18.944 17.92v0.512c0 10.24-7.68 18.432-17.92 18.432z m71.168 0c-10.24 0.512-18.432-7.68-18.944-17.92-0.512-10.24 7.68-18.432 17.92-18.944s18.432 7.68 18.944 17.92v0.512c0 10.24-7.68 18.432-17.92 18.432z m71.168 0c-10.24 0.512-18.432-7.68-18.944-17.92-0.512-10.24 7.68-18.432 17.92-18.944s18.432 7.68 18.944 17.92v0.512c0 10.24-7.68 18.432-17.92 18.432z"
          fill="#8a8a8a"/>
    <path d="M352.256 619.008h4.096c41.984 0 75.776-33.792 75.776-75.776v-158.72c0-41.984-33.792-75.776-75.776-75.776h-4.096c-41.984 0-75.776 33.792-75.776 75.776v158.72c0 41.984 33.792 75.776 75.776 75.776z"
          fill="#8a8a8a"/>
    <path d="M502.272 529.408c0-7.68-6.144-14.336-14.336-14.336-7.68 0-14.336 6.144-14.336 14.336-0.512 65.536-53.76 117.76-119.296 117.248-64.512-0.512-116.736-52.736-117.248-117.248 0-7.68-6.144-14.336-14.336-14.336-7.68 0-14.336 6.144-14.336 14.336 0.512 75.264 57.856 138.24 132.608 144.896v33.28h-25.6c-8.704 0-15.872 7.168-15.872 15.872v0.512c0 8.704 7.168 15.872 15.872 15.872h79.872c8.704 0 15.872-7.168 15.872-15.872v-0.512c0-8.704-7.168-15.872-15.872-15.872h-25.6v-33.28c75.264-6.656 132.608-69.632 132.608-144.896z"
          fill="#8a8a8a"/>
    <path d="M352.256 619.008h4.096c41.984 0 75.776-33.792 75.776-75.776v-158.72c0-41.984-33.792-75.776-75.776-75.776h-4.096c-41.984 0-75.776 33.792-75.776 75.776v158.72c0 41.984 33.792 75.776 75.776 75.776z"
          fill="#8a8a8a"/>
    <path d="M502.272 529.408c0-7.68-6.144-14.336-14.336-14.336-7.68 0-14.336 6.144-14.336 14.336-0.512 65.536-53.76 117.76-119.296 117.248-64.512-0.512-116.736-52.736-117.248-117.248 0-7.68-6.144-14.336-14.336-14.336-7.68 0-14.336 6.144-14.336 14.336 0.512 75.264 57.856 138.24 132.608 144.896v33.28h-25.6c-8.704 0-15.872 7.168-15.872 15.872v0.512c0 8.704 7.168 15.872 15.872 15.872h79.872c8.704 0 15.872-7.168 15.872-15.872v-0.512c0-8.704-7.168-15.872-15.872-15.872h-25.6v-33.28c75.264-6.656 132.608-69.632 132.608-144.896z"
          fill="#8a8a8a"/>
    <path d="M356.352 308.736h-4.096c-41.984 0-75.776 33.792-75.776 75.776v103.424h156.16v-103.424c0-41.984-34.304-75.776-76.288-75.776z" fill="#8a8a8a"/>
</svg>